<svg id="vrmetagamesLogo" data-name="Livello 1" xmlns="http://www.w3.org/2000/svg" viewBox="0 0 1012 1237">
    <style type="text/css">
        .cls-1,.cls-6{fill:#0086ff;}.cls-2,.cls-5{fill:#ff7b00;}.cls-3{fill:#ff8a23;}.cls-4{fill:#fff;}.cls-5,.cls-6{stroke:#000;stroke-miterlimit:10;}.cls-5{stroke-width:20px;}.cls-6{stroke-width:11px;}
    </style>
    <path class="cls-1"
          d="M624.74,515c.25,3.46,87.31,42.3,87.36,45.77.44,29.82,67,98.37,88.83,118.41l20.4,18.73c5,4.64,4.57,12.6-1.08,17.79s-14.32,5.62-19.37,1l-25.08-23c-8-7.36-22.69-3.19-26.73,7.56l-.13.36a12.69,12.69,0,0,0,3.13,14.11l89.5,90.19c8,7.35,7.24,20-1.7,28.17s-22.68,8.91-30.68,1.56l-116-109.67c-23.55-21.62-45.95,3.19-28.12,19.56L837.39,911.39c4.21,3.87,3.81,10.5-.9,14.82s-11.94,4.69-16.15.83L637,752.66c-9.2-8.44-22.3-12.53-36.1-11.26l-.18,0c-24.55,2.19-45.41-11.67-61.18-27.23S510.3,680.41,489.9,670c-14.38-72.52,7.16-150.88,62.29-201.42,29.8-27.31,97.61-55.36,110.9-21,17.83,46.09-40.92,31.22-38.35,67.33Z"
          transform="translate(-2 -2)"/>
    <path class="cls-1"
          d="M336.08,666.9c-.9-4.32-.79-5-1.33-10.34-3-29.7-18.19-56-41.68-74.35l-87.55-68.5c-5.44-4.25-5.65-12.22-.46-17.8s13.79-6.65,19.22-2.4l92.58,72.43c8.64,6.75,22.9,1.52,26-9.49,0-.12.07-.24.11-.36a12.81,12.81,0,0,0-4.35-13.84L184.47,421.66c-8.61-6.74-8.94-19.36-.74-28.2s21.84-10.53,30.45-3.8L349.62,497.08c-.25-4.66-12-76-7.5-72.43L393,459.77c9.9,7.75,23.31,10.87,37,8.6l.18,0c24.28-4,46.28,8.32,63.34,22.68s32.09,31.54,53.33,40.38c35.9,92.17,8,179.64-44.66,205.33-41.37,20.2-92.58-.41-98.13-2.73C395.61,730.5,345,709.35,336.08,666.9Z"
          transform="translate(-2 -2)"/>
    <path class="cls-1"
          d="M110.09,185c12-12.94,31.95-15.47,44.5-5.66L437.73,407.86c6,4.73,14.78,5.74,22.74,2.5l.56-.23c16.6-6.69,21.57-26.8,9-36.65L430.67,342.7c-7.92-6.2-8.2-17.86-.61-26s20.18-9.78,28.11-3.58l32,25.05c36.56,28.6,62.82,32,88.42,33.51,37.93,2.27,65.68,37.55,58.09,74.78l-.15.71a102.69,102.69,0,0,1-16.37,37.67c-3.57,5.13-7.48,9.69-11.23,14.28-54.42-1.52-64.15,34-94.27,65.59-15.34-11.56-72.76-57.12-88-68.75q-21.17-16.14-42.53-32.13c2.34-8.81-1.21-20-14.88-30.73L111.05,226.17c-12.55-9.82-13-28.27-1-41.22Z"
          transform="translate(-2 -2)"/>
    <path class="cls-2"
          d="M376.14,524.37c-.25,3.46-87.32,42.3-87.37,45.77-.43,29.83-67,98.38-88.82,118.41l-20.41,18.73c-5,4.64-4.57,12.6,1.08,17.79s14.33,5.62,19.38,1l25.08-23c8-7.37,22.69-3.2,26.72,7.56,0,.11.09.24.14.35a12.68,12.68,0,0,1-3.13,14.11l-89.51,90.2c-8,7.34-7.23,20,1.71,28.16s22.68,8.91,30.68,1.56l116-109.67c23.55-21.62,45.95,3.2,28.11,19.56L163.49,920.78c-4.21,3.87-3.81,10.51.9,14.82s11.93,4.69,16.14.83L363.85,762.06c9.2-8.45,22.3-12.54,36.1-11.27l.19,0c24.54,2.19,45.41-11.67,61.17-27.23S490.57,689.8,511,679.44c14.38-72.53-7.16-150.89-62.3-201.43-29.79-27.31-97.6-55.36-110.9-21-17.82,46.09,40.93,31.22,38.36,67.33Z"
          transform="translate(-2 -2)"/>
    <path class="cls-2"
          d="M668.63,640.85q.81-5.15,1.33-10.34c3-29.69,18.19-56,41.68-74.35l87.55-68.49c5.44-4.25,5.65-12.23.46-17.81s-13.78-6.65-19.22-2.39l-92.58,72.42c-8.64,6.76-22.89,1.53-26-9.48,0-.13-.07-.25-.1-.37a12.78,12.78,0,0,1,4.34-13.83l154.14-120.6c8.61-6.73,8.94-19.36.74-28.19s-21.84-10.54-30.45-3.8L655.09,471c.25-4.67,12-76,7.5-72.44l-50.86,35.13c-9.9,7.75-23.31,10.87-37,8.59l-.19,0c-24.28-4-46.28,8.32-63.34,22.67s-32.09,31.55-53.33,40.39C437.31,576.6,452,656.29,502.58,710.69c27.34,29.39,76.19,34.5,109.13,17.46s51.23-51.49,56.92-87.3Z"
          transform="translate(-2 -2)"/>
    <path class="cls-3"
          d="M857.49,176.73c-12-12.94-31.94-15.48-44.49-5.66L529.85,399.64c-6,4.73-14.77,5.74-22.74,2.5l-.55-.23c-16.61-6.69-21.58-26.8-9-36.65l39.34-30.78c7.93-6.2,8.2-17.86.61-26s-20.18-9.78-28.1-3.58l-32,25c-36.56,28.61-62.82,32-88.42,33.52-37.92,2.27-65.68,37.55-58.09,74.78l.15.71a102.71,102.71,0,0,0,16.38,37.67c3.56,5.13,7.47,9.69,11.22,14.28,54.42-1.52,64.15,34,94.27,65.59,15.34-11.56,72.77-57.12,88-68.75q21.18-16.14,42.53-32.13c-2.33-8.81,1.22-20.05,14.88-30.73L856.53,218c12.55-9.82,13-28.27,1-41.22Z"
          transform="translate(-2 -2)"/>
    <path class="cls-4"
          d="M356.19,470c6.85,19.65,2.3,43.44,17.36,59.55A363.65,363.65,0,0,0,420,570.76c28.15,21.11,66.12,39.44,102.38,33.66,35.5-5.65,58.85-43.63,79.14-69.62,10-12.85,20.08-25.83,30.37-38.65V331.22H350.47V461.54a19,19,0,0,1,5.72,8.48Z"
          transform="translate(-2 -2)"/>
    <path class="cls-2"
          d="M520.54,331.22c0,.22,0,.43,0,.65-.83,30.21-4.56,60.06-8.35,90-.17,1.31-.41,2.59-.67,3.84A21,21,0,0,1,522,434.28c8.17,8.22,10.65,21.26,1.13,30.4a30.44,30.44,0,0,1-8.81,5.93,20.46,20.46,0,0,1-4.89,4,29.43,29.43,0,0,1-4.1,2A23.6,23.6,0,0,1,501.4,478a25.42,25.42,0,0,1,3.58,4.39,26,26,0,0,1,4.07,16.34c8,5.38,9.48,15.4,5.63,23.46a19.65,19.65,0,0,1-6.81,21.24,35.78,35.78,0,0,1,7.14,6.69c9.65,12,9.48,27.6.87,40.13A38.61,38.61,0,0,1,497,604.8a92,92,0,0,0,25.4-.38c35.5-5.65,58.85-43.63,79.14-69.62,10-12.85,20.08-25.83,30.37-38.65V331.22Z"
          transform="translate(-2 -2)"/>
    <path class="cls-1"
          d="M748.63,635.88c-4.76-5.29-10.74-9.51-14.8-15.36-8.33-12-7-28.16-12.48-41.69-9.45-23.32-36.14-33.69-60.12-41.34-11.34-3.61-22.85-7.22-34.74-7.6s-24.4,2.86-32.84,11.24l-1.4.2c-2.24,23.64-6.62,49.95,11.32,67.84,11.78,11.74,11.59,24.32-2.06,32.88-15.6,9.78-76.26,63.79-89.17,65.23-11.82,1.31-66.33-30.58-81.27-39C410.94,657,378.15,644,381.75,616c1.4-10.81,6.81-20.58,11.15-30.48,4.05-9.24,8.52-18.09,15-25.83a93.42,93.42,0,0,1-8.78-8.34c-1.22-1.34-2.53-2.69-3.8-4.06-7.5-3.23-21.93-16.09-23.87-22.81-1.63-.46-6.9.33-8.53-.14-14.62,13.37-35.17,17.39-53.92,23.78s-38.45,18-42.88,37.32c-3.52,15.36,3.72,31.66.27,47-2,8.88-7.5,17.53-5.49,26.4,2.39,10.51,13.39,16.06,18.18,18.61C338.88,709.36,352.54,737.6,415,752c9.35,2.16,17,3.38,21,4,0,0,37.42,5.88,78,3,102.18-7.25,170.23-68.38,224.66-89.94,3.64-1.44,13.58-5.55,16.2-13.76C757,648.52,753.39,641.18,748.63,635.88Z"
          transform="translate(-2 -2)"/>
    <path class="cls-4"
          d="M491.69,698.14c25.56-34.68,12.12-64.35-14.37-81-9.52-6-17.11-19.93-24.62-27.68-12.78-7-27.87-16.88-50-31.52A91.34,91.34,0,0,1,376.14,636a552.55,552.55,0,0,0,115.55,62.19Z"
          transform="translate(-2 -2)"/>
    <path d="M546,523a54.61,54.61,0,0,1-11,13c-3.8,3.27-14,12-28.2,12.11-2.9,0-8.28.48-13.73-2.8-4.1-2.46-7.49-5.92-12.24-11.77a109.7,109.7,0,0,0,15.75,1.08A115.25,115.25,0,0,0,546,523Z"
          transform="translate(-2 -2)"/>
    <path d="M549.81,590.91c18.58-20.6,22.47-27.83,23.44-37.67s-.82-12.22-2-21.34c1.16,4.53,13.38,2.07,17.18,1.33a101.49,101.49,0,0,0,31.4-11.72c-6.93,7.93-24.28,29.83-31.21,37.75l-38.83,31.65Z"
          transform="translate(-2 -2)"/>
    <path d="M319.31,341.59c-20.74-77.11-1.67-143.08,34.71-194l9.09,33.81A302.56,302.56,0,0,1,522.84,72.9l-17.22,40.24,113.85-26a166.29,166.29,0,0,1-41.54,61.79,136.48,136.48,0,0,0,66.58-25.39,76.24,76.24,0,0,1-10,41.59A86.14,86.14,0,0,0,677.4,142a137.84,137.84,0,0,1-9.62,89.63l33.64-14.49c-2.09,57.22-12.08,91.76-35.34,118-1.1,1.25-1.47,3.12-2.89,4-2.37,1.43-5.6.1-7.28-2.1s-2.26-5-3-7.69c-9.07-33.12-107.54-54.78-133.56-54.84-36-.09-72.29-3.05-107.62,3.65s-67,40.41-92.43,63.51Z"
          transform="translate(-2 -2)"/>
    <path d="M326.18,327.93a5.37,5.37,0,0,0-5.31,6.15l22.26,149.17a5.35,5.35,0,0,0,10.59-1.58L331.46,332.5a5.33,5.33,0,0,0-5.28-4.57ZM348.4,495a12.48,12.48,0,0,1-12.33-10.65L313.81,335.13a12.52,12.52,0,0,1,10.52-14.2,12.5,12.5,0,0,1,14.19,10.51l22.26,149.18a12.49,12.49,0,0,1-10.51,14.19,11.86,11.86,0,0,1-1.87.14Z"
          transform="translate(-2 -2)"/>
    <path d="M343.13,483.25a5.35,5.35,0,1,0,10.59-1.58L331.46,332.5a5.35,5.35,0,1,0-10.59,1.58l22.26,149.17ZM348.4,495a12.48,12.48,0,0,1-12.33-10.65L313.81,335.13a12.5,12.5,0,0,1,24.72-3.69l22.25,149.18a12.48,12.48,0,0,1-10.51,14.19,11.86,11.86,0,0,1-1.87.14Z"
          transform="translate(-2 -2)"/>
    <path d="M720.66,421.41c.79-6-8.92-73.15-21.09-80.44l-26.31-4.09-19.61,145c20.19-4,49.78-11,54.18-15.1,3.75-3.47,11.49-35.5,12.83-45.34Zm-18.81-86c16.9,8.41,25.43,81.37,24.7,86.75-.66,4.88-8.3,43-14.69,48.91-7.33,6.79-52.23,15.67-61.15,17.38l-4.07.78,21.54-159.2,33.27,5.18.4.2Z"
          transform="translate(-2 -2)"/>
    <path class="cls-2"
          d="M699.57,341c12.17,7.29,21.88,74.48,21.09,80.44-1.34,9.84-9.08,41.87-12.83,45.34-4.4,4.07-34,11.07-54.18,15.1l19.61-145L699.57,341Z"
          transform="translate(-2 -2)"/>
    <path d="M658.39,327.41a5.35,5.35,0,0,0-5.32,4.87L639.57,482.5a5.36,5.36,0,0,0,10.67,1l13.49-150.22a5.35,5.35,0,0,0-4.86-5.81l-.48,0ZM644.93,495.47a10.87,10.87,0,0,1-1.14-.05,12.48,12.48,0,0,1-11.32-13.55L646,331.65a12.49,12.49,0,1,1,24.88,2.23L657.35,484.1a12.48,12.48,0,0,1-12.42,11.37Z"
          transform="translate(-2 -2)"/>
    <path d="M546,512a24.73,24.73,0,0,1-3,5c-6.82,8.78-18.16,11.28-25,12.22a38.49,38.49,0,0,1-9.83.58,91.24,91.24,0,0,0-15.85.51c-2.41.29-4.89.68-7.25.11a18.47,18.47,0,0,1-5.74-2.89c-1.93-1.28-3.69-3-3.54-4.77.26-3.12,6.77-4.66,7.21-4.76,3.77-.85,4.95.24,12,1,4.5.49,8.76.92,14,0,2.21-.39,4.65-1,6.63-1.54,3.89-1,6.69-1.93,7.29-2.12C526.39,514.23,532.86,512.93,546,512Z"
          transform="translate(-2 -2)"/>
    <path d="M558.23,430.05a1,1,0,0,0,0,2.06,1,1,0,0,0,0-2.06Z" transform="translate(-2 -2)"/>
    <path d="M566.59,434.23a1,1,0,0,0,0,2.06,1,1,0,0,0,0-2.06Z" transform="translate(-2 -2)"/>
    <path d="M551.16,432a1,1,0,0,0,0,2.06,1,1,0,0,0,0-2.06Z" transform="translate(-2 -2)"/>
    <path d="M536.41,458.3c-1.9-5.69-5.37-12.29-7.6-17.85-1.93-4.82-4-11.48-9.2-12.3a2.9,2.9,0,0,0-3.5,3c-.2,4.31,1.9,6.23,4.56,9.26,3.23,3.68,6.33,7.17,8.63,11.68,1.57,3.08,4.72,9.71,3.21,13.23-3.29,7.68-11.91,6.26-15.17,7.44,3-3,7.87-9.46,6.84-10.37-3.1-2.73-4.69,10-28.54,10-6.75,0-14-5.45-19.11-9.83-3.13-2.68-4.25.58-1.27,3.46,1.75,1.68,5.48,4.9,7.58,6.75-2.74-.58-5.53-1-8.25-1.5-2.52-.5-5-1.12-7.46-1.83a5.4,5.4,0,0,1-3-7.52c.56-1.17,1.19-2.32,1.88-3.47a2,2,0,1,0-3.35-2.17c-7.37,11.61-5.5,12.06-4.15,13.57,7.37,8.19,14.42,9.17,21.74,12.21l.08.05c8.44,5.13,18.8,10.88,28.37,12.5,8.25,1.39,16-8.25,17.84-16.43a.88.88,0,0,0,0-.16c9.55-4.29,12.91-10.67,9.89-19.71Z"
          transform="translate(-2 -2)"/>
    <path d="M353.87,473.15C372,454.39,400.57,446.4,425.82,453c10.44,2.73,20.93,7.8,31.52,5.73,16.19-3.17,27.14-22.12,43.62-21.59a622.57,622.57,0,0,1-106.78-3.76c-21-2.56-44.23-7.57-56.38-24.94,4.5,20.86,9,41.72,16.07,64.69Z"
          transform="translate(-2 -2)"/>
    <path d="M661.29,342.59V377c0,31.52-26.73,57.08-59.71,57.08H384.32c-33,0-59.72-25.56-59.72-57.08V342.59c0-60,137-81.53,236.18-64.95,8.21,1.37,16.15,3,23.74,4.9,44.53,11.09,76.77,31.12,76.77,60Z"
          transform="translate(-2 -2)"/>
    <path class="cls-1"
          d="M626,297.56c-.81,1.44-1.62,2.87-2.49,4.35-7,11.85-13.61,24-21.12,35.52-13.46,20.64-26.5,44.27-44.95,60.93-20.15,18.2-45.22,23.84-71.27,28.58-13.9,2.52-27.84,4.82-41.79,7.1H601.57c33,0,59.73-25.56,59.73-57.09V342.59c0-18.76-13.61-33.76-35.3-45Z"
          transform="translate(-2 -2)"/>
    <path class="cls-1" d="M370,430l11.58,1.8A41.7,41.7,0,0,1,370,430Z" transform="translate(-2 -2)"/>
    <path class="cls-1"
          d="M656.47,377c0,28.81-24.62,52.25-54.89,52.25H384.32c-30.27,0-54.9-23.44-54.9-52.25V342.59c0-24.73,26.81-39.91,49.3-48.28,29.89-11.12,70.29-17.26,113.78-17.26a424.61,424.61,0,0,1,57.7,3.82h0a307.59,307.59,0,0,1,36,7.07,213.51,213.51,0,0,1,20.55,6.43c22.64,8.39,49.63,23.57,49.63,48.21V377ZM492.5,267.4c-44.6,0-86.2,6.35-117.14,17.87-36.37,13.54-55.59,33.36-55.59,57.32V377c0,34.12,29,61.9,64.55,61.9H601.58c35.58,0,64.54-27.78,64.54-61.9V342.59c0-51.65-90-75.19-173.62-75.19Z"
          transform="translate(-2 -2)"/>
    <path class="cls-1"
          d="M421.36,418.45a12.15,12.15,0,0,0-1.12,10.76H386.51a44,44,0,0,0,18.89-12.76l85.15-100-69.19,102Z"
          transform="translate(-2 -2)"/>
    <path class="cls-1"
          d="M586.29,288c-13-2-16.53,4.15-22.93,12.16l-64.19,80.31c19.68-31,35.49-54.91,55.16-85.93,7.83-12.34,3.81-12.29-4.08-13.61a307.59,307.59,0,0,1,36,7.07Z"
          transform="translate(-2 -2)"/>
    <path d="M527,439a24.85,24.85,0,0,1,2,5c.22.81.39,1.58.52,2.31,26-2.15,44.76.21,63.93,7.91s36.31,23.35,40.49,43.59q7.23-39.74,14.47-79.47c-6.65,4.63-20.21,13.16-37,17.27A134.18,134.18,0,0,1,584,439H527Z"
          transform="translate(-2 -2)"/>
    <path d="M657.91,436.44c4.54,4.32,12.43,2.84,17-1.46s6.65-10.55,8.57-16.53c-2.22,12-4.48,24.2-9.61,35.31S660.38,475,649.06,479.6a435.24,435.24,0,0,1,8.85-43.16Z"
          transform="translate(-2 -2)"/>
    <path d="M697.22,432.92c4,4.84,12.27,3.64,16.76-.77s6.18-10.85,7.68-17a137.71,137.71,0,0,1-6.34,37.67,38.23,38.23,0,0,1-4.56,10.23c-6.69,9.72-19.61,12.41-31.26,14.33,11-11.28,18.41-26.06,17.72-44.5Z"
          transform="translate(-2 -2)"/>
    <path d="M342.51,483.13l.9,6.06-4.06-.72c-7.55-1.33-40.78-7.42-55.44-13.32l.5-1.78c21.09,6.09,38,7.65,51.81,9.28,1.78.21,3.5.43,5.18.65l1.11-.17Z"
          transform="translate(-2 -2)"/>
    <path d="M319.71,330.31l22.8,152.82-1.11.17-8.06-50.61-3.89-10.35c-.19,2.59-.39,5.18-.56,7.76q0,.7-.09,1.38l-14.08-94.29-26.24,4.44c-9.39,5.78-16.79,47.67-19.21,68.89,0-4,.05-7.88,0-11.58v-.09c-2,12-3.52,24.25-1.84,36.29.23,1.65.61,3.53,1.1,5.54l-2,.51c-2.14-8.54-3.67-16-4-18-.8-5.38,6.72-78.44,23.5-87.09l.42-.21,33.19-5.62Z"
          transform="translate(-2 -2)"/>
    <path d="M333.34,432.69l8.06,50.61c-1.68-.22-3.4-.44-5.18-.65l.09-.77-7.51-50.4q0-.68.09-1.38c.17-2.58.37-5.17.56-7.76l3.89,10.35Z"
          transform="translate(-2 -2)"/>
    <path d="M328.8,431.48l7.51,50.4c-20.25-3.76-49.92-10.36-54.38-14.37-3.81-3.43-12-35.33-13.45-45.16-.2-1.33.09-5.72.79-11.83.11,7.78.8,15.63,4.33,21.83,6.24,10.95,19,12.86,30.35,14.2,5.59.66,11.81,1.93,17.08-.62,6.12-3,7.26-8.38,7.77-14.45Z"
          transform="translate(-2 -2)"/>
    <path class="cls-2"
          d="M339.31,481.88l-.09.77c-13.81-1.63-30.72-3.19-51.81-9.28l-.75-.22c-4.26-1.25-12-19.69-15.14-32.47-.49-2-.87-3.89-1.1-5.54-1.68-12-.18-24.3,1.84-36.29v.09c.05,3.7,0,7.62,0,11.58-.7,6.11-1,10.5-.79,11.83,1.47,9.83,9.64,41.73,13.45,45.16,4.46,4,34.13,10.61,54.38,14.37Z"
          transform="translate(-2 -2)"/>
    <path class="cls-2"
          d="M314.72,337.19l14.08,94.29c-.51,6.07-1.65,11.48-7.77,14.45-5.27,2.55-11.49,1.28-17.08.62-11.37-1.34-24.11-3.25-30.35-14.2-3.53-6.2-4.22-14.05-4.33-21.83,2.42-21.22,9.82-63.11,19.21-68.89l26.24-4.44Z"
          transform="translate(-2 -2)"/>
    <path d="M284.41,473.37l-.5,1.78a21.7,21.7,0,0,1-6-3.22c-3.84-3.46-8.27-18.26-11.39-30.74l2-.51c3.11,12.78,10.88,31.22,15.14,32.47l.75.22Z"
          transform="translate(-2 -2)"/>
    <path d="M745.74,622.24c-3-5.4-6.22-10.63-9.66-15.75a71.93,71.93,0,0,1-4.73-8.39c-.14-1-.29-1.94-.38-2.83-.88-8.06-2.17-16.09-5.14-23.68-6.62-16.93-20.36-26.59-37.59-31.28-21.45-5.84-43.68-9.28-65.47-13.64a6.13,6.13,0,0,0-2.84.06,95.06,95.06,0,0,0,12.33-20.49c3.85-8.8,5.33-15.91,7.23-26.64,6-34.26,9.81-55.64,4.51-57.6-1.88-.69-4.2,1.31-5,2-8.11,7-.06,20.78-2.46,45.34a98.1,98.1,0,0,1-4.74,22,99.89,99.89,0,0,1-12.89,25.27c-10,14.25-22.28,26.92-34,39.67-11.23,12.17-22.28,25.61-36.44,34.51-29.06,18.28-66.95,10.77-95.4-5-14.78-8.16-28.25-18.39-41.67-28.57-12.51-9.5-25.38-19-35.79-30.83-16.66-19-17.2-45.22-17.84-51.78-1.29-13.21-1.65-40.44-9.72-46.7-.95-.74-6-4.64-6.63-4-.14.15,0,.51,0,.6,6.52,19.59,9.6,37.6,11.93,55.09,2.07,15.42,3.82,29.17,12.39,42.18-1-.59-33.75,10.51-60.13,22.33-9.22,4.12-18.15,8.65-27,13.48-8.08,4.4-16.66,8.87-19,18.56s-1.09,20.92-1.44,30.91c-.22,6.13-.2,10.94-.06,14.7a50.44,50.44,0,0,1-5.23,24c-4.45,9.09-7.56,21.35,3.39,27.79,9.18,5.4,106.74,60.75,166.05,91.65a1.65,1.65,0,0,0,1.66-2.84C389.41,735.2,266.36,667.77,264,664c-2.47-3.92,1.08-9,4.64-13.52,3.14-3.88,15.44,4,21.8,7.24,10.23,5.27,55.95,30.37,71.61,36.32,5.71,2.17,11.48,5.38,17.53,6.42,1.87.32,3.91-2.07,2.09-3.58-5.39-4.46-12.63-7.47-18.86-10.65-15-7.65-70.4-36.8-82-45.49l-.64-.51c-.08-.09-.15-.19-.24-.28-9-8.74-8.27-15.2-8.43-23-.2-9.7-.12-19.44.23-29.13.15-4,0-8.28,2.52-11.59s7.06-5.64,10.55-8c7.47-4.91,15.25-9.48,23.06-13.85a303.65,303.65,0,0,1,57.3-24.32,49.47,49.47,0,0,0,5.06-2.06c9.44,13.07,19.53,20.75,31.94,30.87C415.71,570,429.46,581,444.49,590.07c28.81,17.42,64.07,28,96.34,13.26,15.39-7.06,27.69-19.47,38.94-31.79,11.86-13,20.4-20.94,31.71-34.44a51,51,0,0,1,8.12,1.07c12.57,2.8,25.1,5.8,37.69,8.56,12.06,2.64,24.37,4.46,36.32,7.58,11,2.88,18.71,9.05,22.74,19.9a77.63,77.63,0,0,1,3.88,18.26c.65,5.72,3.89,9.79-48,46-7.52,5.25-7.16,7.38-4.94,6.49a230.08,230.08,0,0,0,51.84-28.92c1.42-1.06,3.11-2.12,4.78-3.24,1.82,5.71,4.26,11-.7,16.5s-12,9.75-18.4,13.53c-12.92,7.66-26.58,14.12-40.13,20.59-14.61,7-29.2,14-43.86,20.9-2.29,1.07-4.45,2.47-6.86,3.22-1.21.37-30.59,15.39-29.82,18.56.64,2.61,38.69-16.78,46.9-20.68q5.91-2.8,11.84-5.57c15.72-6.78,31.34-13.83,46.72-21.46,14.26-7.08,29.11-13.83,41.23-24.34.82-.71,1.74-1.46,2.69-2.26,4.26,4,7,8.53,9.49,13.73a36.28,36.28,0,0,1,2.74,7.32c.18.75.31,1.4.48,2-.09,5.95-4.31,10.43-10.58,13.79-8.73,4.68-18.09,8.43-27.1,12.52-37.88,17.18-76.25,33.17-114.34,49.88-41,18-68.14,28.34-66.63,30.66,3.08,4.75,56.31-18.59,67.23-23.2,20.54-8.65,41-17.54,61.43-26.4,21.3-9.23,42.75-18.08,64.28-26.73,14.57-5.86,38-13,38.36-32.41C759.09,642.06,750.72,631.3,745.74,622.24Z"
          transform="translate(-2 -2)"/>
    <path d="M682.9,582.54c-1.69-7.48-24.55,8.23-32.75,3-22.15-14-53.21-36.94-55-34.72-8,9.67-12,11.26-20.56,19.83,3,16.06-7.37,38.13,6.67,50.21A179.19,179.19,0,0,0,602.73,636c-8.07,6.91-75.05,63.31-84.77,66.32-6.34,2-17.59-4.48-23.18-6.89-58.48-25.22-80.4-42.73-107.78-57.24,8.74-9.74,15.26-17.78,16.25-25.18,2.15-16.14,6.73-41.4,6.73-49.25-2.13-3.32-9.8-9-21.3-18.73-11.9,9.48-56.28,41.45-63.1,45.7-4.92,3.06-16.05.05-23.6-2.68-2-.73-13.58,1.19-2.92,8.17,89.62,58.71,187.62,104.91,196.46,108.88,5.08,2.28,10.46,5.37,16.06,6.11,16.35,2.15,80.3-56.31,97.92-71.12l1.46-1.23c5.78-2.91,72.58-53.4,71.94-56.27Z"
          transform="translate(-2 -2)"/>
    <path d="M563.69,601.24a113.09,113.09,0,0,1-26.18,20q9.16,17.75,18.34,35.49c.37.74.86,1.56,1.71,1.74,1.61.34,2.45-1.75,2.58-3.3,1.57-18.19,3.14-36.39,3.55-54Z"
          transform="translate(-2 -2)"/>
    <path d="M700.53,390l21.13,48.55-21.76,2q-.2-6.9-.4-13.8l1-36.76Z" transform="translate(-2 -2)"/>
    <path d="M596.57,667.12c-4.09-1.77,96.88-68.73,99.21-60.83,3.16,2.39-97.15,64.22-99.21,60.83Z"
          transform="translate(-2 -2)"/>
    <path d="M419.44,569q-.58,24.27-1.16,48.56,4.46-21.75,8.9-43.51c-1.82-.72-3.64-1.44-7.74-5.05Z"
          transform="translate(-2 -2)"/>
    <path class="cls-1"
          d="M668.78,174c-7.66,34.81-27.91,71.71-54.95,94.23,16.89-2.21,34.41-4.41,49.77-12,3.12,13,1.47,30.76-6.67,52.77a169.43,169.43,0,0,0,27.36-71.64c-15.21,3-24.07,6.95-39.28,9.93,19-17.83,24-45,23.77-73.33Z"
          transform="translate(-2 -2)"/>
    <path class="cls-2" d="M455.39,224.58C479.61,167.69,531.8,123.33,592,109.34c-44.94,37.9-89.88,75.79-136.64,115.24Z"
          transform="translate(-2 -2)"/>
    <path class="cls-2"
          d="M472,235.14a354.27,354.27,0,0,1,154.16-80.9c-16.79,25.07-44.31,40.94-72.38,52S496.14,224.6,472,235.14Z"
          transform="translate(-2 -2)"/>
    <path class="cls-1"
          d="M619.21,187.1c-1.45,10.24-16.78,34.71-16.78,34.71s36.69-18.14,49.22-33.62c-11.83,31.3-36,58.14-66.59,73.87a55.72,55.72,0,0,0,17.41-25.56,98.87,98.87,0,0,1-33.41,13.35l17.54-22.09c-33.16,15.9-55.24,17.54-77.72,14.41,0,0,55.72-18.2,69.6-26.38,28.3-16.66,40.73-28.69,40.73-28.69Z"
          transform="translate(-2 -2)"/>
    <path d="M286,342.6c5.24-5.25,15.82-2.59,17.95,4.52l12.73,42.61q-2.73-22.8-5.47-45.6a7.57,7.57,0,0,1,6.15-8.08l-9.11.14L286,342.6Z"
          transform="translate(-2 -2)"/>
    <path d="M702.58,341.84c-5.23-5.26-15.81-2.59-17.94,4.51L671.9,389q2.75-22.8,5.47-45.61a7.56,7.56,0,0,0-6.15-8.07l9.12.14,22.24,6.41Z"
          transform="translate(-2 -2)"/>
    <path d="M556.24,424.42c26.46-3.13,48.7-1.08,63.62-10.85,19.28-12.62,27.87-38.6,27.55-56.44,2.79,32-6,48.69-20.64,59.61s-42.65,8.9-70.53,7.68Z"
          transform="translate(-2 -2)"/>
    <path d="M487.52,439.93c12.86-1.56,26.24,6.78,30.51,19q-1.1-5.34-2.56-11.11c-.79-3.05-1.62-6-2.47-8.82H491Z"
          transform="translate(-2 -2)"/>
    <path d="M295.65,336.43a58.2,58.2,0,0,1,21.6-40.25l9.09,25.06-9.2,13.93a213.94,213.94,0,0,0-21.49,1.26Z"
          transform="translate(-2 -2)"/>
    <path d="M666.22,332.49l30.32,2.35a99.15,99.15,0,0,0-17.45-32.61,35.32,35.32,0,0,1-16.66,15c1.92,4.32,3.83,8.63,3.79,15.25Z"
          transform="translate(-2 -2)"/>
    <path class="cls-1"
          d="M332.43,291.38A158.58,158.58,0,0,1,348,187.72q6.75,24.12,13.49,48.24c22.33-60.18,70.47-110.3,129.72-135a213.67,213.67,0,0,0-67.79,98.23,138.23,138.23,0,0,1,66-45.14,194.78,194.78,0,0,0-64,114.37q-1.51-20.85-3-41.7l-44.24,44.23A88.37,88.37,0,0,1,400.67,214c-27.29,21.83-49.94,49.44-68.24,77.34Z"
          transform="translate(-2 -2)"/>
    <path class="cls-1" d="M493.83,861.59a11.53,11.53,0,1,1,11.53,11.52,11.53,11.53,0,0,1-11.53-11.52Z"
          transform="translate(-2 -2)"/>
    <path class="cls-1"
          d="M530.62,790.79c0-4.68,3.44-8.48,7.68-8.48s7.67,3.8,7.67,8.48-3.44,8.5-7.67,8.5-7.68-3.8-7.68-8.5Z"
          transform="translate(-2 -2)"/>
    <path class="cls-2"
          d="M369.44,814.58a13.34,13.34,0,0,0-18.86-.67L260,898.23a13.34,13.34,0,1,0,18.19,19.53l90.55-84.32a13.34,13.34,0,0,0,.68-18.86Z"
          transform="translate(-2 -2)"/>
    <path class="cls-1"
          d="M453.69,276.55c-7.79-1.18-9.92,2.49-13.76,7.29L401.44,332c11.8-18.61,21.28-32.93,33.08-51.52,4.69-7.41,2.28-7.38-2.45-8.17a185.23,185.23,0,0,1,21.62,4.24Z"
          transform="translate(-2 -2)"/>
    <path class="cls-1"
          d="M584.08,786.82a13.35,13.35,0,0,1,18.86-.67l90.56,84.33A13.34,13.34,0,0,1,675.31,890l-90.56-84.33a13.35,13.35,0,0,1-.67-18.86Z"
          transform="translate(-2 -2)"/>
    <path class="cls-5"
          d="M462.75,769.11h35.56V912.32l-50.56,36.89L397.2,912.32V799.11l-13.07-30h48.62V894.66l15,10.64,15-10.64Z"
          transform="translate(-2 -2)"/>
    <path class="cls-5"
          d="M575.23,942.8l-12-45.6q-6.3,4.59-12,8.47v36.76H515.72V769.11h51.53q13.54,0,23,5.33a37.19,37.19,0,0,1,14.57,14.27,39.42,39.42,0,0,1,5.08,19.83V860q-7.12,6.76-16.08,14L612,942.8Zm-24-144.42v68.34a150.16,150.16,0,0,0,25.77-20.56V827.53q0-10.63-.43-16.57t-2.78-8.65q-2.36-2.71-7.68-3.44a112.78,112.78,0,0,0-11.85-.49Z"
          transform="translate(-2 -2)"/>
</svg>