<svg viewBox="0 0 512 512" xmlns="http://www.w3.org/2000/svg">
	<!-- console body -->
	<!-- path:nth-child(1) -->
	<path d="m392.274 0h-272.548c-12.976 0-23.533 10.557-23.533 23.532v416.836c0 4.142 3.358 7.5 7.5 7.5s7.5-3.358 7.5-7.5v-416.836c0-4.705 3.828-8.532 8.532-8.532h272.549c4.705 0 8.532 3.828 8.532 8.532v416.839c0 31.225-25.404 56.629-56.629 56.629h-224.451c-4.705 0-8.532-3.828-8.532-8.532v-16.029c0-4.142-3.358-7.5-7.5-7.5s-7.5 3.358-7.5 7.5v16.029c0 12.976 10.557 23.532 23.532 23.532h224.452c39.497 0 71.629-32.133 71.629-71.629v-416.839c0-12.975-10.557-23.532-23.533-23.532z" />
	<!-- outer screen -->
	<!-- path:nth-child(2) -->
	<path d="m312.114 48.097h-160.323c-12.976 0-23.532 10.557-23.532 23.532v160.323c0 12.976 10.557 23.532 23.532 23.532h184.371c26.236 0 47.581-21.345 47.581-47.581v-136.274c0-12.976-10.557-23.532-23.532-23.532h-16.03c-4.142 0-7.5 3.358-7.5 7.5s3.358 7.5 7.5 7.5h16.03c4.705 0 8.532 3.828 8.532 8.532v136.274c0 17.965-14.616 32.581-32.581 32.581h-184.371c-4.705 0-8.532-3.828-8.532-8.532v-160.323c0-4.705 3.828-8.532 8.532-8.532h160.323c4.142 0 7.5-3.358 7.5-7.5s-3.358-7.5-7.5-7.5z" />
	<!-- inner screen -->
	<!-- path:nth-child(3) -->
	<path d="m176.355 87.661v128.258c0 4.142 3.358 7.5 7.5 7.5h144.29c4.142 0 7.5-3.358 7.5-7.5v-128.258c0-4.142-3.358-7.5-7.5-7.5h-144.29c-4.142 0-7.5 3.358-7.5 7.5zm15 7.5h129.29v113.258h-129.29z" />
	<!-- croce direzionale -->
	<!-- path:nth-child(4) -->
	<path d="m128.258 336.161c0 8.556 6.96 15.516 15.516 15.516h8.532v8.532c0 8.556 6.96 15.516 15.516 15.516h16.032c8.556 0 15.516-6.96 15.516-15.516v-8.532h8.532c8.556 0 15.516-6.96 15.516-15.516v-16.032c0-8.556-6.96-15.516-15.516-15.516h-8.532v-8.532c0-8.556-6.96-15.516-15.516-15.516h-16.032c-8.556 0-15.516 6.96-15.516 15.516v8.532h-8.532c-8.556 0-15.516 6.96-15.516 15.516zm15-16.032c0-.285.231-.516.516-.516h16.032c4.142 0 7.5-3.358 7.5-7.5v-16.032c0-.285.231-.516.516-.516h16.032c.285 0 .516.231.516.516v16.032c0 4.142 3.358 7.5 7.5 7.5h16.032c.285 0 .516.231.516.516v16.032c0 .285-.231.516-.516.516h-16.032c-4.142 0-7.5 3.358-7.5 7.5v16.032c0 .285-.231.516-.516.516h-16.032c-.285 0-.516-.231-.516-.516v-16.032c0-4.142-3.358-7.5-7.5-7.5h-16.032c-.285 0-.516-.231-.516-.516z" />
	<!-- A & B buttons -->
	<!-- path:nth-child(5), path:nth-child(6) -->
	<path d="m375.726 312.113c0-12.976-10.557-23.532-23.532-23.532s-23.532 10.557-23.532 23.532 10.557 23.532 23.532 23.532 23.532-10.557 23.532-23.532zm-23.533 8.532c-4.705 0-8.532-3.828-8.532-8.532s3.828-8.532 8.532-8.532 8.532 3.828 8.532 8.532-3.827 8.532-8.532 8.532z" />
	<path d="m319.613 336.161c0-12.976-10.557-23.532-23.532-23.532s-23.532 10.557-23.532 23.532 10.557 23.532 23.532 23.532 23.532-10.556 23.532-23.532zm-23.532 8.532c-4.705 0-8.532-3.828-8.532-8.532s3.828-8.532 8.532-8.532 8.532 3.828 8.532 8.532-3.828 8.532-8.532 8.532z" />
	<!-- start & select buttons -->
	<!-- path:nth-child(7), path:nth-child(8) -->
	<path d="m227.792 386.034-24.048 16.032c-3.447 2.297-4.378 6.954-2.08 10.4 1.445 2.168 3.823 3.341 6.247 3.341 1.43 0 2.875-.408 4.153-1.261l24.048-16.032c3.447-2.297 4.378-6.954 2.08-10.4-2.297-3.446-6.955-4.377-10.4-2.08z" />
	<path d="m286.289 388.114c-2.297-3.446-6.955-4.377-10.4-2.08l-24.048 16.032c-3.447 2.297-4.378 6.954-2.08 10.4 1.445 2.168 3.823 3.341 6.247 3.341 1.43 0 2.875-.408 4.153-1.261l24.048-16.032c3.446-2.297 4.377-6.953 2.08-10.4z" />
	<!-- Audio exit -->
	<!-- path:nth-child(n+9):nth-child(-n+12) -->
	<path d="m369.425 435.436c1.263 2.751 3.98 4.373 6.821 4.373 1.046 0 2.11-.221 3.124-.686 3.764-1.728 5.415-6.181 3.688-9.945l-13.376-29.141c-1.728-3.764-6.179-5.415-9.945-3.688-3.764 1.728-5.415 6.181-3.688 9.945z" />
	<path d="m330.596 409.725c-3.764 1.728-5.415 6.181-3.688 9.945l13.376 29.141c1.263 2.751 3.98 4.373 6.821 4.373 1.046 0 2.11-.221 3.124-.686 3.764-1.728 5.415-6.181 3.688-9.945l-13.376-29.141c-1.728-3.764-6.179-5.413-9.945-3.687z" />
	<path d="m311.143 462.188c1.263 2.751 3.98 4.373 6.821 4.373 1.046 0 2.11-.221 3.124-.686 3.764-1.728 5.415-6.181 3.688-9.945l-13.376-29.141c-1.728-3.764-6.18-5.415-9.945-3.688-3.764 1.728-5.415 6.181-3.688 9.945z" />
	<path d="m282.002 475.564c1.263 2.751 3.98 4.373 6.821 4.373 1.046 0 2.11-.221 3.124-.686 3.764-1.728 5.416-6.181 3.688-9.945l-13.376-29.141c-1.729-3.764-6.179-5.414-9.945-3.688-3.764 1.728-5.415 6.181-3.688 9.945z" />
</svg>
