<svg version="1.1" xmlns="http://www.w3.org/2000/svg" xmlns:xlink="http://www.w3.org/1999/xlink" viewBox="200 37.192 560 485.616" xml:space="preserve">
	 <!-- case body -->
	 <path d="M395.858,322.58l-0.001-16.503V280V59.365c0-12.226-9.947-22.173-22.174-22.173h-14.183H236.356h-14.183
 		C209.948,37.193,200,47.14,200,59.365V280v211.453v9.182c0,12.227,9.948,22.173,22.174,22.173h151.51
 		c12.227,0,22.174-9.946,22.174-22.173v-9.182V415.56l0.001-16.504V322.58z M341.498,53.696l-7.302,8.471
 		c-1.831,2.126-4.49,3.344-7.296,3.344h-58.703c-2.88,0-5.587-1.272-7.423-3.491l-6.884-8.323H341.498z M379.353,500.633
 		c0.002,3.128-2.542,5.672-5.67,5.672h-151.51c-3.127,0-5.671-2.544-5.671-5.67v-6.082l48.558-55.534
 		c3.726-4.264,5.286-10.12,4.176-15.667l-8.943-46.008c-0.893-4.468-5.238-7.366-9.709-6.473c-4.468,0.894-7.366,5.241-6.473,9.709
 		l8.943,46.009c0.11,0.555-0.046,1.141-0.419,1.567l-36.133,41.325V303.519l15.64,19.549c0.182,0.227,0.309,0.499,0.365,0.785
 		l3.919,19.597c0.894,4.469,5.241,7.375,9.709,6.474c4.468-0.894,7.366-5.241,6.473-9.71l-3.919-19.594
 		c-0.571-2.865-1.838-5.584-3.663-7.862l-28.524-35.651V59.365c0-3.126,2.544-5.67,5.671-5.67h10.3l15.587,18.843
 		c4.982,6.021,12.321,9.476,20.138,9.476h58.704c7.612,0,14.827-3.307,19.796-9.071l16.586-19.246h10.4
 		c3.127,0,5.671,2.544,5.671,5.67v217.74l-28.523,35.65c-1.825,2.279-3.092,4.999-3.664,7.86L326.621,423.35
 		c-1.11,5.547,0.45,11.404,4.176,15.668l48.557,55.533V500.633z M379.355,469.482l-36.132-41.323
 		c-0.374-0.428-0.53-1.014-0.42-1.568c0.001-0.001,0.001-0.001,0.001-0.002l20.546-102.735c0.058-0.284,0.185-0.557,0.367-0.784
 		l15.638-19.547V469.482z"/>
	<!-- case central button -->
	<path d="M278.898,474.033h-19.482c-4.558,0-8.251,3.693-8.251,8.251s3.693,8.251,8.251,8.251h19.482
 		c4.558,0,8.251-3.693,8.251-8.251S283.455,474.033,278.898,474.033z"/>
	<!-- case bottom buttons -->
	<!-- aaaa -->
 	<path d="M310.581,474.033c-4.558,0-8.252,3.693-8.252,8.251s3.694,8.251,8.252,8.251h19.481c4.558,0,8.252-3.693,8.252-8.251
 		s-3.694-8.251-8.252-8.251H310.581z"/>
 	<path d="M325.75,307.451c0-16.529-13.449-29.979-29.979-29.979c-16.531,0-29.979,13.448-29.979,29.979s13.448,29.979,29.979,29.979
 		C312.301,337.431,325.75,323.983,325.75,307.451z M295.77,320.929c-7.432,0-13.478-6.046-13.478-13.478s6.045-13.478,13.478-13.478
 		c7.431,0,13.477,6.046,13.477,13.478S303.202,320.929,295.77,320.929z"/>

	<!-- CD slots -->
	<!-- aaaa -->
 	<path d="M242.445,139.873h110.968c7.908,0,14.339-6.433,14.339-14.338v-16.349c0-7.907-6.432-14.339-14.339-14.339H242.445
 		c-7.907,0-14.339,6.433-14.339,14.339v16.348C228.105,133.441,234.538,139.873,242.445,139.873z M244.607,111.351H351.25v12.021
 		H244.607V111.351z"/>
 	<path d="M367.752,185.054v-16.347c0-7.908-6.432-14.34-14.339-14.34H242.445c-7.907,0-14.339,6.433-14.339,14.34v16.347
 		c0,7.907,6.433,14.338,14.339,14.338h110.968C361.32,199.393,367.752,192.961,367.752,185.054z M351.25,182.891H244.607v-12.021
 		H351.25V182.891z"/>


	<!-- monitor body -->
	<path d="M721.575,68.422H419.739c-4.558,0-8.251,3.693-8.251,8.251s3.693,8.251,8.251,8.251h301.836
		c12.089,0,21.924,9.836,21.924,21.925v199.228h-30.865c-4.558,0-8.252,3.693-8.252,8.251s3.694,8.252,8.252,8.252h30.865v54.553
		c0,12.089-9.836,21.924-21.924,21.924h-162.95h-91.456h-71.311l-0.001,16.504h63.06v57.328h-14.147
		c-14.012,0-25.411,11.399-25.411,25.41v16.259c0,4.558,3.694,8.251,8.252,8.251h170.571c4.559,0,8.252-3.693,8.252-8.251v-16.259
		c0-14.011-11.398-25.41-25.409-25.41h-14.148v-21.041c0-4.558-3.694-8.251-8.252-8.251s-8.251,3.693-8.251,8.251v21.041h-74.955
		V415.56h74.955v4.658c0,4.558,3.693,8.252,8.251,8.252s8.252-3.694,8.252-8.252v-4.658h154.698
		c21.188,0,38.426-17.238,38.426-38.427V106.849C760.002,85.66,742.762,68.422,721.575,68.422z M558.625,489.389h22.4
		c4.911,0,8.906,3.996,8.906,8.908v8.007H435.862v-8.007c0-4.912,3.996-8.908,8.908-8.908h22.398H558.625z"/>
	<!-- monitor screen bottom -->
	<path d="M680.305,322.58c4.558,0,8.251-3.694,8.251-8.252s-3.693-8.251-8.251-8.251H395.857l0.001,16.503H680.305z"/>
	<!-- monitor right side buttons -->
	<circle cx="710.006" cy="359.526" r="8.251"/>
	<circle cx="680.3" cy="359.526" r="8.251"/>
	<circle cx="650.965" cy="359.526" r="8.251"/>
	<!-- monitor central button -->
	<path d="M488.53,357.692c0,13.436,10.931,24.366,24.366,24.366s24.367-10.931,24.367-24.366s-10.932-24.366-24.367-24.366
		S488.53,344.256,488.53,357.692z M520.76,357.692c0,4.336-3.528,7.864-7.864,7.864c-4.335,0-7.864-3.528-7.864-7.864
		s3.529-7.864,7.864-7.864C517.232,349.827,520.76,353.356,520.76,357.692z"/>
</svg>
