<svg xmlns="http://www.w3.org/2000/svg" xmlns:xlink="http://www.w3.org/1999/xlink" viewBox="200 76.796 559.999 406.409" ml:space="preserve">
	<!-- controller (back) body -->
	<path d="M274.475,334.806c-6.859,5.751-15.738,7.545-24.357,4.921c-8.604-2.616-14.964-9.035-17.45-17.605
		c-5.813-20.054-8.762-40.897-8.762-61.951c0-56.157,21.017-109.761,59.175-150.932c9.461-10.204,24.936-11.343,35.996-2.65
		c21.464,16.872,52.791,26.548,85.948,26.548c33.149,0,64.473-9.676,85.932-26.544c11.075-8.695,26.546-7.556,36.001,2.646
		c30.12,32.479,49.476,72.257,56.371,115.584l23.062-7.109c-8.086-46.718-29.311-89.584-61.9-124.727
		c-17.988-19.412-47.349-21.647-68.303-5.192c-17.332,13.623-43.271,21.437-71.163,21.437c-27.9,0-53.842-7.813-71.176-21.438
		c-20.935-16.453-50.295-14.22-68.299,5.192C223.279,138.593,200,197.967,200,260.17c0,23.308,3.266,46.391,9.709,68.609
		c4.709,16.236,17.215,28.88,33.449,33.818c4.834,1.471,9.772,2.191,14.668,2.191c11.568,0,22.896-4.022,32.014-11.666
		c19.869-16.673,43.015-28.759,67.776-35.538l8.398-26.516C332.402,297.613,300.882,312.649,274.475,334.806z"/>
	<!-- controller (back) croce direzionale -->
	<path d="M365.339,193.44h-20.844v-20.843c0-4.32-2.733-8.17-6.814-9.594c-6.357-2.217-13.033-3.342-19.842-3.342
		s-13.484,1.125-19.843,3.342c-4.081,1.424-6.814,5.273-6.814,9.594v20.843h-20.84c-4.321,0-8.169,2.734-9.593,6.813
		c-2.219,6.357-3.344,13.034-3.344,19.844s1.125,13.487,3.344,19.844c1.424,4.079,5.272,6.813,9.593,6.813h20.843v20.843
		c0,4.32,2.733,8.168,6.813,9.592c6.357,2.219,13.034,3.344,19.844,3.344s13.487-1.125,19.844-3.344
		c4.08-1.424,6.813-5.271,6.813-9.592v-20.843h20.843c4.321,0,8.17-2.734,9.594-6.813c2.217-6.357,3.342-13.033,3.342-19.843
		c0-6.809-1.125-13.484-3.342-19.842C373.509,196.174,369.661,193.44,365.339,193.44z M357.459,226.432h-23.122
		c-5.611,0-10.16,4.55-10.16,10.16v23.123c-4.161,0.661-8.511,0.659-12.672,0v-23.123c0-5.61-4.55-10.16-10.16-10.16h-23.123
		c-0.329-2.081-0.495-4.196-0.495-6.335s0.166-4.255,0.495-6.336h23.123c5.61,0,10.16-4.55,10.16-10.16V180.48
		c4.162-0.661,8.511-0.661,12.672,0v23.121c0,5.61,4.549,10.16,10.16,10.16h23.121c0.329,2.081,0.496,4.196,0.496,6.336
		C357.954,222.236,357.787,224.353,357.459,226.432z"/>
	<!-- controller (back) buttons -->
	<path d="M503.97,164.406c-9.547,0.023-17.283,7.783-17.259,17.329c0.021,9.546,7.757,17.259,17.294,17.259c0.011,0,0.022,0,0.033,0
		c9.558-0.011,17.283-7.771,17.261-17.328C521.275,172.119,513.528,164.395,503.97,164.406z"/>
	<path d="M542.421,202.684c-9.546,0.022-17.26,7.793-17.235,17.351c0.006,1.607,0.247,3.155,0.662,4.63l32.145,2.925
		c1.138-2.315,1.791-4.913,1.781-7.669C559.749,210.374,551.978,202.649,542.421,202.684z"/>

	<!-- controller (front) body -->
	<path d="M694.451,211.397c-17.989-19.41-47.35-21.643-68.297-5.188c-5.725,4.497-12.402,8.346-19.764,11.505l-23.062,7.109
		c-8.092,1.647-16.604,2.59-25.337,2.767l-32.145-2.925c-16.364-3.438-30.96-9.755-42.037-18.456
		c-20.944-16.453-50.305-14.223-68.297,5.188c-21.706,23.417-38.39,50.474-49.499,79.673l-8.398,26.516
		c-5.039,19.748-7.652,40.216-7.652,61.005c0,23.32,3.265,46.401,9.703,68.604c4.709,16.239,17.215,28.884,33.454,33.821
		c4.832,1.47,9.766,2.189,14.659,2.189c11.57,0,22.899-4.025,32.014-11.672c32.191-27.008,73.1-41.882,115.188-41.882
		s82.997,14.874,115.188,41.882c12.971,10.883,30.418,14.427,46.672,9.484c16.24-4.939,28.745-17.582,33.455-33.822
		c6.438-22.2,9.702-45.282,9.702-68.603C760,316.377,736.721,257.001,694.451,211.397z M727.337,440.534
		c-2.486,8.574-8.845,14.992-17.45,17.608c-8.617,2.621-17.495,0.827-24.35-4.926c-36.49-30.613-82.855-47.474-130.555-47.474
		s-94.063,16.86-130.553,47.474c-6.855,5.752-15.729,7.546-24.353,4.926c-8.604-2.616-14.965-9.034-17.449-17.608
		c-5.811-20.037-8.758-40.879-8.758-61.945c0-56.167,21.017-109.771,59.177-150.941c5.198-5.608,12.216-8.475,19.32-8.475
		c5.816,0,11.693,1.922,16.674,5.836c21.471,16.865,52.795,26.539,85.94,26.539c33.145,0,64.471-9.674,85.939-26.539
		c11.066-8.694,26.54-7.563,35.995,2.639c38.159,41.171,59.176,94.775,59.176,150.941
		C736.094,399.656,733.147,420.497,727.337,440.534z"/>
	<!-- controller (front) croce direzionale -->
	<path d="M515.298,311.855h-20.843v-20.842c0-4.321-2.734-8.17-6.813-9.594c-6.356-2.217-13.032-3.342-19.843-3.342
		c-6.809,0-13.484,1.125-19.842,3.342c-4.081,1.424-6.814,5.272-6.814,9.594v20.843h-20.842c-4.321,0-8.169,2.733-9.593,6.813
		c-2.219,6.356-3.344,13.033-3.344,19.844c0,6.81,1.125,13.486,3.344,19.843c1.424,4.08,5.271,6.813,9.593,6.813h20.842v20.842
		c0,4.321,2.733,8.169,6.813,9.593c6.357,2.219,13.034,3.343,19.843,3.343c6.811,0,13.487-1.124,19.844-3.343
		c4.08-1.424,6.813-5.272,6.813-9.593v-20.842h20.843c4.319,0,8.169-2.732,9.593-6.812c2.217-6.355,3.343-13.033,3.343-19.845
		c0-6.813-1.125-13.489-3.343-19.845C523.467,314.587,519.617,311.855,515.298,311.855z M507.417,344.848h-23.122
		c-5.611,0-10.16,4.549-10.16,10.16v23.121c-4.161,0.661-8.511,0.66-12.672,0v-23.121c0-5.611-4.55-10.16-10.16-10.16h-23.121
		c-0.33-2.081-0.496-4.197-0.496-6.337s0.166-4.255,0.496-6.336h23.121c5.61,0,10.16-4.55,10.16-10.16v-23.121
		c4.162-0.661,8.511-0.66,12.672,0v23.122c0,5.611,4.549,10.16,10.16,10.16h23.122c0.33,2.081,0.496,4.197,0.496,6.337
		S507.747,342.767,507.417,344.848z"/>
	<!-- controller (front) buttons -->
	<path d="M692.441,355.691c0.012,0,0.034,0,0.046,0c9.558-0.035,17.271-7.795,17.249-17.353 c-0.035-9.546-7.794-17.271-17.352-17.236c-9.547,0.022-17.271,7.793-17.236,17.34C675.17,347.977,682.906,355.691,692.441,355.691 z"/>
	<path d="M615.632,321.252c-9.547,0.012-17.283,7.759-17.27,17.316c0.012,9.546,7.759,17.283,17.316,17.271 c9.547-0.012,17.283-7.759,17.271-17.306C632.936,328.978,625.189,321.241,615.632,321.252z"/>
	<path d="M654.14,359.612c-0.104,0-0.196,0-0.301,0c-9.453,0.114-17.087,7.805-17.087,17.294c0,9.546,7.747,17.294,17.294,17.294 c0.023,0,0.047,0,0.058,0c0.034,0,0.069,0,0.104,0c0.023,0,0.046,0,0.068,0c9.546-0.035,17.26-7.818,17.225-17.363 C671.457,367.278,663.686,359.565,654.14,359.612z"/>
	<path d="M653.967,317.412c0.011,0,0.024,0,0.035,0c9.558-0.022,17.283-7.781,17.259-17.328 c-0.022-9.558-7.782-17.283-17.328-17.259c-9.557,0.022-17.282,7.782-17.26,17.328 C636.683,309.689,644.433,317.412,653.967,317.412z"/>
</svg>
