<svg xmlns="http://www.w3.org/2000/svg" viewBox="0 0 64 64">
	<!-- console body -->
	<path d="M62,2H2V48H17v4h6V62h2V52h6V48h2v4h6V62h2V52h6V48H62ZM41,4v7.508l.411.3A16.551,16.551,0,0,1,48,25a16,16,0,0,1-32,0,16.551,16.551,0,0,1,6.589-13.192l.411-.3V4ZM12,46V44H10v2H4V4H21v6.5A18.624,18.624,0,0,0,14,25a17.964,17.964,0,0,0,7,14.216V46Zm17,4H19V48H29Zm-6-4V40.564a17.844,17.844,0,0,0,18,0V46Zm22,4H35V48H45Zm15-4H43V39.216a18.118,18.118,0,0,0,4.194-4.608l1.639,1.639a5.015,5.015,0,1,0,1.414-1.414L48.2,32.789A17.872,17.872,0,0,0,50,25a18.624,18.624,0,0,0-7-14.5V4H60ZM53,36a3,3,0,1,1-3,3A3,3,0,0,1,53,36Z" />
	<!-- play button -->
	<path d="M11,32a5,5,0,1,0,5,5A5.006,5.006,0,0,0,11,32Zm0,8a3,3,0,1,1,3-3A3,3,0,0,1,11,40Z" />
	<!-- reset button -->
	<path d="M9,31a3,3,0,1,0-3-3A3,3,0,0,0,9,31Zm0-4a1,1,0,1,1-1,1A1,1,0,0,1,9,27Z" />
	<!-- reflection line (disk) -->
	<path d="M32,39c.13,0,13-.16,13-14H43c0,11.818-10.553,12-11,12Z" />
</svg>
