<svg version="1.1" xmlns="http://www.w3.org/2000/svg" xmlns:xlink="http://www.w3.org/1999/xlink" viewBox="200 0 560.006 556.528" xml:space="preserve">
	<!-- console -->
	<path d="M625.478,499.314h-0.01h-57.491l-9.03,19.071h70.165l9.535,19.072h-88.74c-2.401,1.256-5.817,6.361-7.907,8.255
		c-3.4,3.08-7.359,4.479-11.836,5.683c-13.657,3.669-22.709,3.199-32.517-0.053c-3.831-1.271-7.064-3.622-10.229-6.055
		c-2.57-1.976-6.361-5.207-8.322-7.851h-105.2v0.021l-9.536-19.072h107.938l0.78-19.071h-114.62V205.058l267.004,35.598v119.96
		l19.08-1.641V70.202c0-4.55-3.214-8.458-7.667-9.346L350.8,3.643c-0.392-0.076-0.771,0.058-1.163,0.028
		c-0.495-0.048-0.981-0.238-1.497-0.19l-114.431,9.535c-4.938,0.41-8.744,4.539-8.744,9.508v484.075L200,556.529h162.109h21.321
		h131.042h155.033l-24.966-49.93v-16.821h-19.063L625.478,499.314L625.478,499.314z M358.467,24.612l267.003,53.4v143.4
		l-267.003-35.599V24.612L358.467,24.612z M301.252,26.529l38.144-3.176v162.042l-38.144,3.176V26.529z M301.252,207.699
		l38.144-3.177v294.79h-5.894h-32.25V207.699z M244.037,31.287l38.144-3.177v162.053l-38.144,3.175V31.287z M244.037,212.467
		l38.144-3.175v290.021h-38.144V212.467z M230.858,537.456l9.535-19.071h102.644l9.536,19.071H230.858z"/>
	<!-- outer controller -->
	<path d="M759.219,439.532c1.669-10.688,0.763-36.627-3.5-48.402c-9.164-25.327-34.043-42.196-62.088-42.196
		c-0.314,0-0.64,0.01-0.964,0.01c-4.549,0.059-9.793,1.021-16.049,2.966c-10.537,3.271-21.255,5.568-32.078,7.065l-19.08,1.641
		c-22.075,0.877-44.608-1.831-67.391-8.648c-6.37-1.906-13.437-2.928-21.008-3.022c-0.324,0-0.648-0.01-0.991-0.01
		c-28.083,0-52.98,16.889-62.146,42.254c-4.253,11.795-5.148,37.704-3.472,48.337c1.354,8.592,2.595,13.063,3.511,16.325
		c1.229,4.377,1.688,6.008,0.856,18.061l-1.745,25.403l-0.781,19.071c0.114,1.191,0.354,2.337,0.571,3.49
		c0.067,0.372,0.105,0.754,0.183,1.115c0.515,2.395,1.259,4.701,2.154,6.923c0.19,0.478,0.4,0.944,0.61,1.411
		c0.943,2.127,2.002,4.196,3.28,6.112c1.961,2.645,5.752,5.875,8.322,7.852c3.165,2.432,6.398,4.782,10.229,6.054
		c9.808,3.252,18.858,3.722,32.517,0.053c4.477-1.202,8.436-2.603,11.836-5.683c2.09-1.894,5.506-6.999,7.907-8.255
		c0.563-0.85,1.011-1.783,1.507-2.689c0.334-0.61,0.706-1.183,1.021-1.812c0.935-1.889,1.764-3.854,2.422-5.912l4.091-8.659
		l9.03-19.071c2.06-4.329,3.519-7.381,4.559-9.536h52.942h19.063h12.808l17.47,37.257c5.56,17.403,22.056,29.494,40.365,29.494
		c23.372,0,42.386-19.015,42.367-43.045l-2.719-39.563c-0.83-12.055-0.372-13.693,0.858-18.07
		C756.605,452.588,757.864,448.125,759.219,439.532z M740.366,436.576c-1.173,7.468-2.203,11.157-3.031,14.113
		c-1.794,6.37-2.537,9.803-1.525,24.517l2.698,38.916c0,12.863-10.461,23.314-23.315,23.314c-10.213,0-19.386-6.837-22.323-16.611
		l-23.392-50.139h-34.462h-67.332c-6.304-1.335-7.305,0.095-20.817,28.607l-1.438,3.051c-0.383,0.811-0.734,1.555-1.146,2.402
		c0,0,0,0.011-0.01,0.021c-1.468,3.099-3.089,6.541-4.824,10.212l-2.127,4.511l-0.515,1.335
		c-2.985,9.938-11.958,16.611-22.333,16.611c-1.604,0-3.156-0.162-4.673-0.467c-10.527-2.146-18.49-11.405-18.644-22.516
		l2.699-39.259c1.001-14.704,0.257-18.137-1.526-24.507c-0.829-2.966-1.858-6.637-3.021-14.122
		c-1.259-7.935-0.438-30.601,2.564-38.916c6.438-17.804,24.136-29.646,44.218-29.646c0.237,0,0.485,0.009,0.725,0.009
		c5.798,0.076,11.109,0.82,15.792,2.223c5.53,1.649,11.052,3.089,16.573,4.329c0.038,0.009,0.075,0.009,0.124,0.02
		c16.104,3.595,32.145,5.426,47.859,5.426c4.491,0,9.297-0.229,14.38-0.581c17.202-1.106,34.167-4.177,50.73-9.316
		c5.492-1.707,8.811-2.089,10.642-2.106c0.229,0,0.468-0.011,0.696-0.011c20.044,0,37.733,11.834,44.17,29.608v0.01
		C740.786,405.93,741.615,428.615,740.366,436.576z"/>
	<!-- right inner controller -->
	<path d="M692.219,384.884c-21.036,0-38.144,17.106-38.144,38.144s17.106,38.144,38.144,38.144s38.144-17.106,38.144-38.144
		S713.257,384.884,692.219,384.884z M692.219,442.099c-10.519,0-19.071-8.554-19.071-19.071c0-10.519,8.554-19.072,19.071-19.072
		c10.519,0,19.071,8.555,19.071,19.072C711.293,433.545,702.738,442.099,692.219,442.099z"/>
	<!-- left inner controller -->
	<path d="M538.511,384.884c-21.035,0-38.144,17.106-38.144,38.144s17.107,38.144,38.144,38.144s38.144-17.106,38.144-38.144
		S559.549,384.884,538.511,384.884z M538.511,442.099c-10.519,0-19.071-8.554-19.071-19.071c0-10.519,8.554-19.072,19.071-19.072
		c10.519,0,19.072,8.555,19.072,19.072S549.03,442.099,538.511,442.099z"/>
	<!-- central inner controller -->
	<path d="M635.006,394.42c-5.273,0-9.536,4.263-9.536,9.534h-19.071c0-5.271-4.263-9.534-9.536-9.534
		c-5.271,0-9.535,4.263-9.535,9.534v9.536c0,5.273,4.264,9.536,9.535,9.536h38.145c5.272,0,9.536-4.263,9.536-9.536v-9.536
		C644.541,398.683,640.278,394.42,635.006,394.42z"/>
</svg>
