<svg version="1.1" xmlns="http://www.w3.org/2000/svg" xmlns:xlink="http://www.w3.org/1999/xlink" viewBox="0 0 512 512" xml:space="preserve">
	<!-- side monitors -->
	<!-- path:nth-child(-n+3) -->
	<path d="M480,360H368c-13.231,0-24,10.768-24,24v64c0,13.231,10.769,24,24,24h24v16h-16v16h96v-16h-16v-16h24
		c13.232,0,24-10.769,24-24v-64C504,370.768,493.232,360,480,360z M440,488h-32v-16h32V488z M488,448c0,4.415-3.584,8-8,8H368
		c-4.416,0-8-3.585-8-8v-8h128V448z M488,424H360v-40c0-4.416,3.584-8,8-8h112c4.416,0,8,3.584,8,8V424z"/>
	<path d="M480,184H368c-13.231,0-24,10.768-24,24v64c0,13.231,10.769,24,24,24h24v16h-16v16h96v-16h-16v-16h24
		c13.232,0,24-10.769,24-24v-64C504,194.768,493.232,184,480,184z M440,312h-32v-16h32V312z M488,272c0,4.416-3.584,8-8,8H368
		c-4.416,0-8-3.584-8-8v-8h128V272z M488,248H360v-40c0-4.416,3.584-8,8-8h112c4.416,0,8,3.584,8,8V248z"/>
	<path d="M480,8H368c-13.231,0-24,10.768-24,24v64c0,13.231,10.769,24,24,24h24v16h-16v16h96v-16h-16v-16h24
		c13.232,0,24-10.769,24-24V32C504,18.768,493.232,8,480,8z M440,136h-32v-16h32V136z M488,96c0,4.416-3.584,8-8,8H368
		c-4.416,0-8-3.584-8-8v-8h128V96z M488,72H360V32c0-4.416,3.584-8,8-8h112c4.416,0,8,3.584,8,8V72z"/>
	<!-- center line -->
	<rect x="312" y="248" width="16" height="16"/>
	<rect x="184" y="248" width="112" height="16"/>
	<!-- ethernet cable -->
	<path d="M184,168h-16V72H24v96H8v139.008l56,64V488h64V371.008l56-64V296v-16v-16v-16v-16v-16V168z M136,88h16v16h-16V88z M104,88
		h16v16h-16V88z M72,88h16v16H72V88z M40,88h16v16H40V88z M40,120h112v48h-32H72H40V120z M104,184v64H88v-64H104z M24,184h48v16H24
		V184z M112,472H80v-96h32V472z M116.368,360H75.632l-42-48h124.736L116.368,360z M168,296H24v-80h48v48h48v-48h48V296z M168,200
		h-48v-16h48V200z"/>
	<!-- top & bottom lines -->
	<path d="M272,296c4.416,0,8,3.584,8,8v96c0,13.231,10.769,24,24,24h24v-16h-24c-4.416,0-8-3.585-8-8v-96c0-13.232-10.768-24-24-24 h-88v16H272z"/>
	<path d="M280,80v128c0,4.416-3.584,8-8,8h-88v16h88c13.232,0,24-10.769,24-24V80c0-4.416,3.584-8,8-8h24V56h-24 C290.768,56,280,66.768,280,80z"/>
</svg>
