<svg version="1.1" xmlns="http://www.w3.org/2000/svg" xmlns:xlink="http://www.w3.org/1999/xlink" viewBox="220.782 41.781 518.43 518.437" xml:space="preserve">
	<!-- controller body -->
	<path d="M584.453,457.144c0-33.622-12.289-87.583-35.523-122.063l-15.335-18.116c-9.068-8.998-21.224-14.206-33.993-14.564
		c-28,0-46.296,11.271-62.444,21.206c-4.776,2.939-9.297,5.688-13.769,7.984v-26.479c-0.002-4.228-3.43-7.653-7.656-7.655h-5.469
		v-83.414c0-4.229-3.429-7.656-7.656-7.656c-4.229,0-7.656,3.428-7.656,7.656v83.414h-5.469c-4.229,0.002-7.653,3.429-7.656,7.655
		v26.446c-4.463-2.283-8.973-5.04-13.742-7.977c-16.151-9.947-34.462-21.227-62.47-21.227c-54.89,0-84.832,102.252-84.832,154.787
		c0,25.497,0,103.075,45.457,103.075c10.902,0,19.923-13.033,36.233-38.016c14.83-22.715,35.112-53.776,50.858-53.776h0.231
		c31.558,0.687,46.448,0.122,49.035,0c2.586,0.118,17.5,0.687,49.025,0h0.241c15.75,0,36.036,31.063,50.868,53.776
		c16.314,24.981,25.331,38.016,36.233,38.016c0.512,0,0.983-0.063,1.482-0.079c0.263,0.04,0.526,0.064,0.792,0.079
		c13.074-4.347,18.591-7.656,26.148-15.313C584.427,520.97,584.453,475.528,584.453,457.144z M397.137,312.769h10.938v24.154
		c-3.617,0.642-7.32,0.642-10.938,0V312.769z M539.321,544.902c-4.689-1.872-15.692-18.721-23.757-31.071
		c-18.594-28.473-39.65-60.716-63.708-60.716h-0.547c-33.51,0.727-48.169,0-48.313,0c-0.259,0-0.521,0-0.779,0
		c-0.147,0-14.813,0.73-48.32,0h-0.547c-24.063,0-45.106,32.243-63.7,60.716c-8.06,12.352-19.066,29.199-23.752,31.063
		c-24.622-0.424-29.803-47.894-29.803-87.749c0-54.867,29.851-139.475,69.519-139.475c23.669,0,39.313,9.624,54.438,18.951
		c13.418,8.261,26.089,16.064,42.557,16.092c4.924-0.025,9.817-0.75,14.538-2.152c0.369-0.076,0.73-0.18,1.085-0.312
		c9.521-3.381,18.579-7.952,26.955-13.605c15.128-9.301,30.761-18.931,54.416-18.931c12.94,0,24.823,9.033,34.978,23.068
		c0.313,0.574,0.696,1.106,1.144,1.584c20.326,29.216,33.397,78.511,33.397,114.778C569.119,497,563.939,544.469,539.321,544.902z"/>
	<!-- console body -->
	<path d="M731.563,41.781L731.563,41.781H541.25c-4.226-0.003-7.652,3.422-7.655,7.647c0,0.003,0,0.006,0,0.009v267.526
		l15.335,18.116V57.094h175l-0.022,487.799h-79.844V296.078c0-4.229-3.428-7.656-7.656-7.656c-4.228,0-7.655,3.428-7.655,7.656
		v248.827H567.39c-7.559,7.656-13.074,10.967-26.148,15.313h190.313c4.226,0.002,7.653-3.422,7.656-7.648c0-0.002,0-0.006,0-0.008
		V49.438C739.214,45.211,735.789,41.783,731.563,41.781z"/>
	<!-- console middle line -->
	<path d="M636.416,236.469c-0.004,0-0.006,0-0.01,0c-4.226-0.003-7.652,3.421-7.656,7.647c0,0.003,0,0.006,0,0.009v18.869
		c0,4.229,3.43,7.655,7.656,7.655c4.229,0,7.656-3.428,7.656-7.655v-18.869C644.065,239.899,640.641,236.471,636.416,236.469z"/>
	<!-- console button -->
	<path d="M636.406,161.66c17.52,0,31.719-14.201,31.719-31.72c0-17.518-14.199-31.719-31.719-31.719
		c-17.516,0-31.716,14.198-31.719,31.715C604.705,147.449,618.895,161.641,636.406,161.66z M620,129.938
		c0.016-9.055,7.354-16.39,16.406-16.401c9.063,0,16.406,7.346,16.406,16.405c0,9.063-7.345,16.406-16.406,16.406
		c-9.061,0-16.406-7.345-16.406-16.406C620,129.941,620,129.939,620,129.938z"/>
	<!-- right buttons -->
	<circle cx="480.172" cy="365.269" r="17.5"/>
	<circle cx="480.172" cy="423.268" r="17.5"/>
	<circle cx="509.17" cy="394.266" r="17.5"/>
	<circle cx="451.17" cy="394.266" r="17.5"/>
	<!-- left croce direzionale -->
	<polygon points="311.654,394.287 306.159,388.793 299.824,382.457 278.545,382.457 278.545,406.077 299.824,406.077 306.159,399.742 "/>
	<polygon points="317.955,387.948 323.445,382.457 329.745,376.156 329.745,354.878 306.159,354.878 306.159,376.156 312.46,382.457"/>
	<polygon points="317.955,400.582 312.46,406.077 306.159,412.378 306.159,433.657 329.745,433.657 329.745,412.378 323.445,406.077"/>
	<polygon points="329.745,388.793 324.29,394.287 329.745,399.742 336.08,406.077 357.36,406.077 357.36,382.457 336.08,382.457 "/>
</svg>
